<svg width="24" height="24" viewBox="0 0 24 24" fill="none" xmlns="http://www.w3.org/2000/svg">
<path d="M19.89 7.34001C19.8 7.67001 19.4 8.50001 18.72 9.29001C18.27 17.97 9.85 20.79 4.08 17.88C3.29 16.83 6.93 17.26 8.26 15.25C3.23 12.68 3.63 5.81001 4.64 6.09001C7.01 9.28001 10.83 9.57001 11.45 9.28001C11.45 8.55001 11.14 6.96001 12.86 5.63001C13.85 4.92001 15.92 4.29001 17.79 6.32001C18.11 6.53001 18.57 6.62001 19.26 6.47001C19.67 6.26001 20.21 6.40001 19.93 7.13001L19.89 7.34001Z" stroke="black" stroke-width="2" stroke-linecap="round" stroke-linejoin="round"/>
</svg>
